<?xml version="1.0" encoding="UTF-8" standalone="no"?>
<!-- Created with Inkscape (http://www.inkscape.org/) -->

<svg
   width="210mm"
   height="297mm"
   viewBox="0 0 210 297"
   version="1.1"
   id="svg1"
   inkscape:version="1.4 (e7c3feb1, 2024-10-09)"
   sodipodi:docname="top-design.svg"
   xmlns:inkscape="http://www.inkscape.org/namespaces/inkscape"
   xmlns:sodipodi="http://sodipodi.sourceforge.net/DTD/sodipodi-0.dtd"
   xmlns="http://www.w3.org/2000/svg"
   xmlns:svg="http://www.w3.org/2000/svg">
  <sodipodi:namedview
     id="namedview1"
     pagecolor="#ffffff"
     bordercolor="#111111"
     borderopacity="1"
     inkscape:showpageshadow="0"
     inkscape:pageopacity="0"
     inkscape:pagecheckerboard="1"
     inkscape:deskcolor="#d1d1d1"
     inkscape:document-units="mm"
     inkscape:zoom="0.38401187"
     inkscape:cx="417.95583"
     inkscape:cy="574.201"
     inkscape:window-width="1200"
     inkscape:window-height="916"
     inkscape:window-x="187"
     inkscape:window-y="38"
     inkscape:window-maximized="0"
     inkscape:current-layer="layer1" />
  <defs
     id="defs1" />
  <g
     inkscape:label="Layer 1"
     inkscape:groupmode="layer"
     id="layer1">
    <ellipse
       style="fill:#1a1a1a;stroke-width:0.264583"
       id="path1"
       cx="191.41682"
       cy="239.86983"
       rx="4.3247814"
       ry="3.8572373" />
    <rect
       style="fill:#1a1a1a;stroke-width:0.301561"
       id="rect2"
       width="2.4294479"
       height="19.403072"
       x="193.25941"
       y="220.5453" />
    <ellipse
       style="fill:#1a1a1a;stroke-width:0.264583"
       id="path1-2"
       cx="18.722206"
       cy="257.98099"
       rx="4.3247814"
       ry="3.8572373" />
    <rect
       style="fill:#000000;fill-opacity:1;stroke-width:0.301561"
       id="rect2-3"
       width="2.4294479"
       height="19.403072"
       x="20.564796"
       y="238.65645" />
    <ellipse
       style="fill:#1a1a1a;stroke-width:0.264583"
       id="path1-5"
       cx="158.06059"
       cy="148.27525"
       rx="4.3247814"
       ry="3.8572373" />
    <rect
       style="fill:#1a1a1a;stroke-width:0.301561"
       id="rect2-2"
       width="2.4294479"
       height="19.403072"
       x="159.90318"
       y="128.95071" />
    <ellipse
       style="fill:#1a1a1a;stroke-width:0.264583"
       id="path1-7"
       cx="172.92159"
       cy="145.23108"
       rx="4.3247814"
       ry="3.8572373" />
    <rect
       style="fill:#1a1a1a;stroke-width:0.301561"
       id="rect2-9"
       width="2.4294479"
       height="19.403072"
       x="174.76418"
       y="125.90652" />
    <rect
       style="fill:#1a1a1a;stroke-width:0.220137"
       id="rect11"
       width="17.15741"
       height="1.8117665"
       x="117.71371"
       y="159.8604"
       transform="matrix(0.97786188,-0.20925139,0.28014194,0.95995859,0,0)" />
    <rect
       style="fill:#1a1a1a;stroke-width:0.264583"
       id="rect12"
       width="0.56564796"
       height="0.67583901"
       x="176.62802"
       y="125.30473" />
    <rect
       style="fill:#1a1a1a;stroke-width:0.244653"
       id="rect13"
       width="0.52483696"
       height="0.17802948"
       x="176.66882"
       y="125.2369" />
    <ellipse
       style="fill:#1a1a1a;stroke-width:0.264583"
       id="path1-5-8"
       cx="54.303322"
       cy="34.664253"
       rx="4.3247814"
       ry="3.8572373" />
    <rect
       style="fill:#1a1a1a;stroke-width:0.301561"
       id="rect2-2-6"
       width="2.4294479"
       height="19.403072"
       x="56.145912"
       y="15.339712" />
    <ellipse
       style="fill:#1a1a1a;stroke-width:0.264583"
       id="path1-7-5"
       cx="69.164299"
       cy="31.620077"
       rx="4.3247814"
       ry="3.8572373" />
    <rect
       style="fill:#1a1a1a;stroke-width:0.301561"
       id="rect2-9-7"
       width="2.4294479"
       height="19.403072"
       x="71.006912"
       y="12.29553" />
    <rect
       style="fill:#1a1a1a;stroke-width:0.220137"
       id="rect11-6"
       width="17.15741"
       height="1.8117665"
       x="49.756592"
       y="26.697235"
       transform="matrix(0.97786188,-0.20925139,0.28014194,0.95995859,0,0)" />
    <rect
       style="fill:#1a1a1a;stroke-width:0.264583"
       id="rect12-2"
       width="0.56564796"
       height="0.67583901"
       x="72.870758"
       y="11.693754" />
    <rect
       style="fill:#1a1a1a;stroke-width:0.244653"
       id="rect13-7"
       width="0.52483696"
       height="0.17802948"
       x="72.911552"
       y="11.625914" />
    <rect
       style="fill:#1a1a1a;stroke-width:0.362246"
       id="rect14"
       width="16.831535"
       height="1.0923265"
       x="59.201363"
       y="29.917385"
       transform="matrix(0.97869666,-0.20531158,-0.05281991,0.99860405,0,0)" />
    <path
       style="fill:#000000;fill-opacity:1;stroke:#000000;stroke-width:0.264583;stroke-opacity:1"
       d="m 21.332165,236.9292 c 0,0 6.48185,-0.43213 7.00658,2.9014 0.52472,3.33353 -1.23464,5.61761 -1.51244,5.988 -0.27779,0.37039 2.03716,-6.88311 -1.29637,-7.00658 -3.33352,-0.12346 -4.84595,-0.0926 -4.84595,-0.0926 l 0.0169,-2.51474 z"
       id="path15" />
    <path
       style="fill:#000000;fill-opacity:1;stroke:#000000;stroke-width:0.324873;stroke-opacity:1"
       d="m 20.808675,236.55075 -0.0567,-0.52067 3.53969,1.06113 -2.1579,0.007 z"
       id="path16" />
    <ellipse
       style="fill:#1a1a1a;stroke-width:0.264583"
       id="path1-2-8"
       cx="55.308784"
       cy="158.66174"
       rx="4.3247814"
       ry="3.8572373" />
    <rect
       style="fill:#000000;fill-opacity:1;stroke-width:0.301561"
       id="rect2-3-1"
       width="2.4294479"
       height="19.403072"
       x="57.151375"
       y="139.33719" />
    <path
       style="fill:#000000;fill-opacity:1;stroke:#000000;stroke-width:0.211655;stroke-opacity:1"
       d="m 57.845066,138.03989 c 0,0 5.35561,-0.33468 5.78917,2.24716 0.43355,2.58184 -1.02012,4.35087 -1.24965,4.63774 -0.22953,0.28687 1.6832,-5.33101 -1.07113,-5.42664 -2.75431,-0.0956 -4.00395,-0.0717 -4.00395,-0.0717 l 0.014,-1.94768 z"
       id="path15-4" />
    <path
       style="fill:#000000;fill-opacity:1;stroke:#000000;stroke-width:0.324873;stroke-opacity:1"
       d="m 57.462036,137.89931 -0.0567,-0.52067 3.53969,1.06113 -2.1579,0.007 z"
       id="path16-7" />
    <path
       style="fill:#000000;fill-opacity:1;stroke:#000000;stroke-width:0.205033;stroke-opacity:1"
       d="m 58.516536,142.22464 c 0,0 5.11723,1.2626 4.62927,3.70448 -0.48797,2.44189 -2.45729,3.60417 -2.77085,3.79445 -0.31355,0.19029 3.41547,-4.28966 0.87634,-5.17912 -2.53912,-0.88945 -3.7144,-1.23266 -3.7144,-1.23266 l 0.68659,-1.74258 z"
       id="path15-4-4" />
    <path
       style="fill:#000000;fill-opacity:1;stroke:#000000;stroke-width:0.251754;stroke-opacity:1"
       d="m 58.213966,141.83556 0.0957,-0.37531 2.44706,1.59044 -1.66694,-0.5154 z"
       id="path16-7-8" />
    <path
       style="fill:#000000;fill-opacity:1;stroke:#000000;stroke-width:0.302727;stroke-opacity:1"
       d="M -8.4798279,291.54424 C 53.455432,228.52182 95.892556,250.01784 95.892556,250.01784 c 0,0 58.494414,21.98457 61.935264,-44.94625 3.44085,-66.93079 82.00688,-74.25898 82.00688,-74.25898 l -0.57348,49.8317 c 0,0 -72.83129,21.98456 -74.5517,62.53389 -1.72043,40.54931 -82.006883,27.35857 -87.741629,22.4731 -5.734747,-4.88545 -67.6700048,17.09911 -67.6700048,36.15241 0,19.05329 -27.5267832,20.03038 -27.5267832,20.03038 z"
       id="path134" />
    <path
       style="fill:#000000;fill-opacity:1;stroke:#000000;stroke-width:0.29597;stroke-opacity:1"
       d="m -29.837764,177.50879 c 65.418744,-36.08588 60.761043,-69.11137 60.761043,-69.11137 0,0 6.547951,-98.9487684 54.494255,-58.240705 C 133.36382,90.86479 153.34942,-6.2425848 153.34942,-6.2425848 l 30.97265,-10.8698072 9.71529,24.4400389 c 0,0 -15.20819,64.7328961 -63.76477,75.7607661 C 81.716004,94.116288 67.55656,67.374954 67.55656,67.374954 c 0,0 -39.233946,46.910116 -16.57156,59.527516 22.662397,12.6174 -65.685339,63.82652 -65.685339,63.82652 z"
       id="path135" />
    <path
       style="fill:#000000;fill-opacity:1;stroke:#000000;stroke-width:0.216279;stroke-opacity:1"
       d="m 231.89993,84.542269 c -94.18892,45.064951 -102.60095,9.192025 -94.18892,45.064951 8.41203,35.87291 -46.750773,57.88448 -60.145114,50.16915 -13.39434,-7.71534 -85.9291781,64.35945 -85.9291781,64.35945 l -4.1792549,-17.77254 c 0,0 8.9434804,-54.74629 56.015236,-59.81641 47.071775,-5.07013 64.089541,5.27943 59.774391,-9.41392 C 98.931949,142.43957 44.835717,127.9576 93.336307,112.08105 141.83689,96.204491 219.61324,64.053602 229.5159,73.852988 c 9.90266,9.799373 2.38403,10.689281 2.38403,10.689281 z"
       id="path136" />
    <ellipse
       style="fill:#000000;stroke:#000000;stroke-width:7.82218"
       id="path2"
       cx="118.07996"
       cy="215.49521"
       rx="8.432168"
       ry="8.3040457" />
    <ellipse
       style="fill:#000000;stroke:#000000;stroke-width:5.69629"
       id="path2-23"
       cx="79.680641"
       cy="211.41122"
       rx="6.2841172"
       ry="5.9089952" />
    <ellipse
       style="fill:#000000;stroke:#000000;stroke-width:3.10148"
       id="path2-23-0"
       cx="62.875359"
       cy="234.68109"
       rx="3.3825274"
       ry="3.2544048" />
    <ellipse
       style="fill:#000000;stroke:#000000;stroke-width:7.82218"
       id="path3"
       cx="136.20662"
       cy="188.72104"
       rx="2.4489172"
       ry="2.4117072" />
    <ellipse
       style="fill:#000000;stroke:#000000;stroke-width:3.71205"
       id="path2-3"
       cx="123.712"
       cy="33.620213"
       rx="4.1073642"
       ry="3.8391738" />
    <ellipse
       style="fill:#000000;stroke:#000000;stroke-width:2.7032"
       id="path2-23-6"
       cx="105.00744"
       cy="31.732082"
       rx="3.0610344"
       ry="2.7318804" />
    <ellipse
       style="fill:#000000;stroke:#000000;stroke-width:1.47182"
       id="path2-23-0-5"
       cx="96.821472"
       cy="42.49033"
       rx="1.6476511"
       ry="1.504595" />
    <ellipse
       style="fill:#000000;stroke:#000000;stroke-width:3.71205"
       id="path3-58"
       cx="132.54161"
       cy="21.241825"
       rx="1.1928835"
       ry="1.1149943" />
    <ellipse
       style="fill:#000000;stroke:#000000;stroke-width:6.11001"
       id="path2-0"
       cx="-45.709248"
       cy="-109.32587"
       rx="6.4873476"
       ry="6.5855165"
       transform="matrix(-0.97515688,0.22151537,-0.20783683,-0.97816351,0,0)" />
    <ellipse
       style="fill:#000000;stroke:#000000;stroke-width:3.91404"
       id="path2-0-0"
       cx="-106.81879"
       cy="-304.87753"
       rx="4.0766721"
       ry="4.3004942"
       transform="matrix(-0.97304893,0.23059874,-0.19956885,-0.97988381,0,0)" />
    <ellipse
       style="fill:#000000;stroke:#000000;stroke-width:6.11001"
       id="path3-5"
       cx="-30.243126"
       cy="-123.50733"
       rx="1.8840916"
       ry="1.9126023"
       transform="matrix(-0.97515688,0.22151537,-0.20783683,-0.97816351,0,0)" />
    <ellipse
       style="fill:#000000;stroke:#000000;stroke-width:6.11001"
       id="path3-5-3"
       cx="-64.656662"
       cy="-119.66565"
       rx="1.8840916"
       ry="1.9126023"
       transform="matrix(-0.97515688,0.22151537,-0.20783683,-0.97816351,0,0)" />
    <ellipse
       style="fill:#000000;stroke:#000000;stroke-width:3.91404"
       id="path3-5-1"
       cx="-95.861496"
       cy="-312.38956"
       rx="1.1839697"
       ry="1.2489735"
       transform="matrix(-0.97304893,0.23059874,-0.19956885,-0.97988381,0,0)" />
    <ellipse
       style="fill:#000000;stroke:#000000;stroke-width:3.91404"
       id="path3-5-3-3"
       cx="-117.48709"
       cy="-309.88086"
       rx="1.1839697"
       ry="1.2489735"
       transform="matrix(-0.97304893,0.23059874,-0.19956885,-0.97988381,0,0)" />
    <ellipse
       style="fill:#000000;stroke:#000000;stroke-width:6.11001"
       id="path3-5-3-6"
       cx="-170.36227"
       cy="-98.695717"
       rx="1.8840916"
       ry="1.9126023"
       transform="matrix(-0.97515688,0.22151537,-0.20783683,-0.97816351,0,0)" />
    <ellipse
       style="fill:#000000;stroke:#000000;stroke-width:6.11001"
       id="path3-5-3-6-3"
       cx="-9.0565853"
       cy="-59.687309"
       rx="1.8840916"
       ry="1.9126023"
       transform="matrix(-0.97515688,0.22151537,-0.20783683,-0.97816351,0,0)" />
    <circle
       style="fill:#000000;stroke:#000000;stroke-width:5.666"
       id="path2-2"
       cx="-203.28421"
       cy="-206.9296"
       r="6.0612674"
       transform="rotate(-150.46774)" />
    <circle
       style="fill:#000000;stroke:#000000;stroke-width:5.666"
       id="path3-4"
       cx="-188.83388"
       cy="-219.98212"
       r="1.760347"
       transform="rotate(-150.46774)" />
    <ellipse
       style="fill:#000000;stroke:#000000;stroke-width:5.22422"
       id="path3-4-9"
       cx="-194.51851"
       cy="-244.32896"
       transform="matrix(-0.89930164,-0.4373289,0.55082283,-0.83462219,0,0)"
       rx="1.6876799"
       ry="1.560975" />
  </g>
</svg>
